# File created by Blade
# Date/Time:  Wed Sep 24 19:53:44 2014
# Frame Rate: 120.000 fps
#------------------------------------------------------
:FULLY-SPECIFIED
:DEGREES
4173
root -5.832301 32.789854 -3.435625 10.742078 18.637883 0.415990
Spine -16.091201 28.183231 -2.764012
Head -1.381334 -42.943299 12.297133
LeftShoulder -24.345960 21.849673 14.726144
LeftArm -11.337337 -85.660389 -34.673244
LeftForeArm -60.053274 -0.000000 105.592047
LeftHand -19.265581 -0.000000 15.734737
LeftHandThumb1 -26.253704 0.000000 33.147579
RightShoulder -22.067235 8.096361 -21.118269
RightArm -23.444391 -3.028204 77.754098
RightForeArm -21.971377 -0.000000 21.246076
RightHand -8.466832 -0.000000 7.410263
RightHandThumb1 -24.326973 -0.000000 -32.862282
LeftUpLeg -5.312242 -6.555170 5.592202
LeftLeg -2.739217 -0.000000 0.000000
LeftFoot -8.559183 2.566571 -18.791371
LeftToeBase 11.701031 -0.000000 -0.000000
RightUpLeg -0.620122 -19.938516 -2.590801
RightLeg -0.852141 -0.000000 0.000000
RightFoot -7.424691 -7.410283 -10.074855
RightToeBase -0.949147 -0.000000 0.000000
4174
root -5.834205 32.789711 -3.436738 10.740729 18.618292 0.416757
Spine -16.084461 28.166269 -2.768627
Head -1.373367 -42.903764 12.280955
LeftShoulder -24.349831 21.849452 14.713331
LeftArm -10.948125 -85.647644 -35.044945
LeftForeArm -60.046226 -0.000000 105.581069
LeftHand -19.325287 -0.000000 15.682725
LeftHandThumb1 -26.253704 0.000000 33.147579
RightShoulder -22.083714 8.115068 -21.116965
RightArm -23.433420 -3.063329 77.762324
RightForeArm -21.976252 0.000000 21.231066
RightHand -8.480451 0.000000 7.379573
RightHandThumb1 -24.326973 -0.000000 -32.862282
LeftUpLeg -5.306154 -6.559192 5.594187
LeftLeg -2.747547 -0.000000 0.000000
LeftFoot -8.563122 2.585154 -18.783220
LeftToeBase 11.745210 -0.000000 -0.000000
RightUpLeg -0.622022 -19.932276 -2.590181
RightLeg -0.857910 -0.000000 0.000000
RightFoot -7.434718 -7.398635 -10.102669
RightToeBase -0.926364 -0.000000 0.000000
4175
root -5.835715 32.789281 -3.437275 10.739678 18.597899 0.416722
Spine -16.099198 28.148331 -2.777875
Head -1.348259 -42.941766 12.292797
LeftShoulder -24.340512 21.874700 14.720912
LeftArm -10.578677 -85.630026 -35.415448
LeftForeArm -60.062119 -0.000000 105.575104
LeftHand -19.334600 0.000000 15.671409
LeftHandThumb1 -26.253704 0.000000 33.147579
RightShoulder -22.068813 8.106379 -21.102239
RightArm -23.421795 -3.026346 77.746450
RightForeArm -21.949637 -0.000000 21.235310
RightHand -8.422755 -0.000000 7.408505
RightHandThumb1 -24.326973 -0.000000 -32.862282
LeftUpLeg -5.304497 -6.543485 5.592166
LeftLeg -2.745284 -0.000000 0.000000
LeftFoot -8.559870 2.585850 -18.784389
LeftToeBase 11.676570 -0.000000 -0.000000
RightUpLeg -0.620048 -19.913559 -2.588461
RightLeg -0.871905 -0.000000 0.000000
RightFoot -7.426516 -7.416573 -10.121410
RightToeBase -0.933763 -0.000000 0.000000
4176
root -5.834951 32.788490 -3.439074 10.739969 18.578919 0.419383
Spine -16.101453 28.121359 -2.771182
Head -1.330714 -42.931440 12.271958
LeftShoulder -24.342325 21.871447 14.721640
LeftArm -10.250270 -85.583927 -35.734989
LeftForeArm -60.033804 -0.000000 105.584650
LeftHand -19.274288 -0.000000 15.777792
LeftHandThumb1 -26.253704 0.000000 33.147579
RightShoulder -22.063176 8.109493 -21.111943
RightArm -23.408066 -3.020281 77.739588
RightForeArm -21.971155 -0.000000 21.220881
RightHand -8.417192 -0.000000 7.420153
RightHandThumb1 -24.326973 -0.000000 -32.862282
LeftUpLeg -5.265870 -6.726044 5.621842
LeftLeg -2.825257 -0.000000 0.000000
LeftFoot -8.577820 2.700232 -18.922066
LeftToeBase 11.753429 -0.000000 -0.000000
RightUpLeg -0.626789 -19.926498 -2.597763
RightLeg -0.865099 -0.000000 0.000000
RightFoot -7.444291 -7.369166 -10.111815
RightToeBase -0.923262 -0.000000 0.000000
4177
root -5.836021 32.788190 -3.440035 10.735112 18.551778 0.418387
Spine -16.098003 28.106067 -2.771449
Head -1.316636 -42.924936 12.276828
LeftShoulder -24.352006 21.874627 14.710024
LeftArm -9.830002 -85.556275 -36.131112
LeftForeArm -60.012464 0.000000 105.617455
LeftHand -19.298726 -0.000000 15.929118
LeftHandThumb1 -26.253704 0.000000 33.147579
RightShoulder -22.057136 8.134899 -21.115997
RightArm -23.415169 -3.013484 77.735869
RightForeArm -21.955766 -0.000000 21.204079
RightHand -8.455415 -0.000000 7.378557
RightHandThumb1 -24.326973 -0.000000 -32.862282
LeftUpLeg -5.251453 -6.775147 5.628678
LeftLeg -2.842756 -0.000000 0.000000
LeftFoot -8.596024 2.765863 -18.972892
LeftToeBase 11.767413 -0.000000 -0.000000
RightUpLeg -0.629389 -19.918032 -2.597354
RightLeg -0.864243 -0.000000 0.000000
RightFoot -7.445029 -7.373754 -10.136937
RightToeBase -0.947224 -0.000000 0.000000
4178
root -5.838167 32.788206 -3.440786 10.726532 18.520279 0.409203
Spine -16.096153 28.098186 -2.762934
Head -1.293195 -42.907261 12.275869
LeftShoulder -24.345036 21.874259 14.711916
LeftArm -9.527867 -85.520905 -36.418361
LeftForeArm -60.066905 -0.000000 105.615648
LeftHand -19.335438 -0.000000 15.858097
LeftHandThumb1 -26.253704 0.000000 33.147579
RightShoulder -22.063801 8.129460 -21.113714
RightArm -23.398215 -3.009768 77.725722
RightForeArm -22.033850 -0.000000 21.205386
RightHand -8.498735 -0.000000 7.404571
RightHandThumb1 -24.326973 -0.000000 -32.862282
LeftUpLeg -5.247521 -6.744607 5.633161
LeftLeg -2.831271 -0.000000 0.000000
LeftFoot -8.602034 2.762647 -18.956127
LeftToeBase 11.769652 -0.000000 -0.000000
RightUpLeg -0.622719 -19.883831 -2.590199
RightLeg -0.882098 -0.000000 0.000000
RightFoot -7.432441 -7.371723 -10.145672
RightToeBase -0.942211 -0.000000 0.000000
4179
root -5.840706 32.788340 -3.441417 10.722682 18.492952 0.404568
Spine -16.103967 28.074862 -2.761152
Head -1.268234 -42.864739 12.288554
LeftShoulder -24.325368 21.882544 14.718678
LeftArm -9.536368 -85.512647 -36.400330
LeftForeArm -60.077325 0.000000 105.627082
LeftHand -19.379876 0.000000 15.845225
LeftHandThumb1 -26.253704 0.000000 33.147579
RightShoulder -22.053691 8.118436 -21.114748
RightArm -23.385726 -2.932020 77.705638
RightForeArm -22.121865 -0.000000 21.200695
RightHand -8.488127 -0.000000 7.438176
RightHandThumb1 -24.326973 -0.000000 -32.862282
LeftUpLeg -5.242931 -6.747296 5.638196
LeftLeg -2.830388 -0.000000 0.000000
LeftFoot -8.607401 2.796312 -18.932561
LeftToeBase 11.724032 -0.000000 -0.000000
RightUpLeg -0.620383 -19.872733 -2.587216
RightLeg -0.896697 -0.000000 0.000000
RightFoot -7.427843 -7.345053 -10.128570
RightToeBase -0.947626 -0.000000 0.000000
4180
root -5.842738 32.788552 -3.441563 10.715344 18.459323 0.395994
Spine -16.104121 28.065652 -2.758375
Head -1.220135 -42.883736 12.252877
LeftShoulder -24.319864 21.881612 14.725866
LeftArm -9.216026 -85.502748 -36.711715
LeftForeArm -60.046715 -0.000000 105.640288
LeftHand -19.415044 0.000000 15.810942
LeftHandThumb1 -26.253704 0.000000 33.147579
RightShoulder -22.059941 8.111269 -21.099076
RightArm -23.345837 -2.735235 77.618731
RightForeArm -22.334124 0.000000 21.153737
RightHand -8.428690 -0.000000 7.615933
RightHandThumb1 -24.326973 -0.000000 -32.862282
LeftUpLeg -5.236745 -6.747053 5.646155
LeftLeg -2.822321 -0.000000 0.000000
LeftFoot -8.632333 2.815142 -18.975075
LeftToeBase 11.786141 -0.000000 -0.000000
RightUpLeg -0.622581 -19.855451 -2.580993
RightLeg -0.896941 -0.000000 0.000000
RightFoot -7.423639 -7.323459 -10.148856
RightToeBase -0.924309 -0.000000 0.000000
4181
root -5.846511 32.789138 -3.443727 10.715386 18.425005 0.371826
Spine -16.113949 28.062651 -2.745962
Head -1.202998 -42.879131 12.254208
LeftShoulder -24.317757 21.876065 14.728888
LeftArm -8.793085 -85.492971 -37.121826
LeftForeArm -60.004932 -0.000000 105.664072
LeftHand -19.403410 -0.000000 15.847150
LeftHandThumb1 -26.253704 0.000000 33.147579
RightShoulder -22.093622 8.128355 -21.106843
RightArm -23.374039 -2.884952 77.644853
RightForeArm -22.170730 -0.000000 21.193080
RightHand -8.466228 0.000000 7.523355
RightHandThumb1 -24.326973 -0.000000 -32.862282
LeftUpLeg -5.249722 -6.737735 5.671880
LeftLeg -2.809468 -0.000000 0.000000
LeftFoot -8.650496 2.842771 -18.979321
LeftToeBase 11.753196 -0.000000 -0.000000
RightUpLeg -0.643129 -19.883336 -2.552826
RightLeg -0.899561 -0.000000 0.000000
RightFoot -7.415728 -7.258356 -10.165387
RightToeBase -0.948938 -0.000000 0.000000
4182
root -5.848588 32.789310 -3.444864 10.709652 18.380735 0.363488
Spine -16.113676 28.059064 -2.743088
Head -1.183696 -42.860136 12.265281
LeftShoulder -24.311345 21.877891 14.735486
LeftArm -8.478617 -85.490363 -37.432113
LeftForeArm -59.928022 -0.000000 105.684761
LeftHand -19.377865 -0.000000 15.867800
LeftHandThumb1 -26.253704 0.000000 33.147579
RightShoulder -22.104971 8.101083 -21.096498
RightArm -23.364780 -2.972875 77.652500
RightForeArm -22.051422 0.000000 21.228032
RightHand -8.455431 -0.000000 7.500109
RightHandThumb1 -24.326973 -0.000000 -32.862282
LeftUpLeg -5.243208 -6.734486 5.677675
LeftLeg -2.805995 -0.000000 0.000000
LeftFoot -8.686924 2.891642 -18.893219
LeftToeBase 11.827393 -0.000000 -0.000000
RightUpLeg -0.650788 -19.850270 -2.548822
RightLeg -0.897343 -0.000000 0.000000
RightFoot -7.412739 -7.247124 -10.164291
RightToeBase -0.996930 -0.000000 0.000000
4183
root -5.849787 32.789686 -3.446058 10.695096 18.337374 0.353117
Spine -16.101937 28.051446 -2.726228
Head -1.140725 -42.852489 12.235002
LeftShoulder -24.304999 21.886194 14.736871
LeftArm -8.246883 -85.510641 -37.675246
LeftForeArm -59.918983 -0.000000 105.715277
LeftHand -19.419322 -0.000000 15.756983
LeftHandThumb1 -26.253704 0.000000 33.147579
RightShoulder -22.103428 8.101253 -21.090934
RightArm -23.387720 -2.995238 77.634033
RightForeArm -22.025720 0.000000 21.277034
RightHand -8.508473 -0.000000 7.500005
RightHandThumb1 -24.326973 -0.000000 -32.862282
LeftUpLeg -5.227728 -6.712831 5.682227
LeftLeg -2.803681 -0.000000 0.000000
LeftFoot -8.677497 2.886380 -19.010211
LeftToeBase 11.735735 -0.000000 -0.000000
RightUpLeg -0.665165 -19.854472 -2.544772
RightLeg -0.864684 -0.000000 0.000000
RightFoot -7.426960 -7.205926 -10.197535
RightToeBase -0.975908 -0.000000 0.000000
4184
root -5.852743 32.790155 -3.448593 10.693145 18.296996 0.340779
Spine -16.101550 28.032763 -2.715471
Head -1.112852 -42.836856 12.221267
LeftShoulder -24.294377 21.868222 14.749592
LeftArm -8.426634 -85.495845 -37.500592
LeftForeArm -59.914008 0.000000 105.759534
LeftHand -19.554773 -0.000000 15.701831
LeftHandThumb1 -26.253704 0.000000 33.147579
RightShoulder -22.111045 8.092940 -21.087757
RightArm -23.365555 -3.026054 77.627054
RightForeArm -21.967480 -0.000000 21.266174
RightHand -8.579468 -0.000000 7.328505
RightHandThumb1 -24.326973 -0.000000 -32.862282
LeftUpLeg -5.233046 -6.706734 5.694564
LeftLeg -2.792624 -0.000000 0.000000
LeftFoot -8.704960 2.925195 -18.924399
LeftToeBase 11.819081 -0.000000 -0.000000
RightUpLeg -0.675270 -19.814351 -2.530811
RightLeg -0.876050 -0.000000 0.000000
RightFoot -7.414441 -7.201388 -10.176529
RightToeBase -0.995822 -0.000000 0.000000
4185
root -5.855089 32.790303 -3.450011 10.681278 18.255021 0.328740
Spine -16.095797 28.019876 -2.702137
Head -1.066229 -42.827417 12.189767
LeftShoulder -24.270408 21.848765 14.757233
LeftArm -8.699144 -85.465288 -37.225271
LeftForeArm -59.887187 -0.000000 105.816205
LeftHand -19.519109 0.000000 15.684702
LeftHandThumb1 -26.253704 0.000000 33.147579
RightShoulder -22.111127 8.105276 -21.092841
RightArm -23.377716 -3.041750 77.612268
RightForeArm -21.950954 -0.000000 21.247255
RightHand -8.570482 -0.000000 7.292074
RightHandThumb1 -24.326973 -0.000000 -32.862282
LeftUpLeg -5.223414 -6.684334 5.700417
LeftLeg -2.785709 -0.000000 0.000000
LeftFoot -8.712841 2.942077 -19.002746
LeftToeBase 11.778073 -0.000000 -0.000000
RightUpLeg -0.678036 -19.781812 -2.524761
RightLeg -0.874626 -0.000000 0.000000
RightFoot -7.410747 -7.191567 -10.176129
RightToeBase -0.970333 -0.000000 0.000000
